# xmcd
#
# Track frame offsets:
#	150
#	76773
#	168765
#	189119
#	276714
#
# Disc length: 4104 seconds
#
# Revision: 0
# Processed by: cddbd v1.5.2PL0 Copyright (c) Steve Scherf et al.
# Submitted via: EZCDAudioConverter 1.3.4.1
#
DISCID=35100605
DTITLE=Tangerine Dream - Sunrise In The Third System 2/2
DYEAR=1900
DGENRE=
TTITLE0=Zeit
TTITLE1=Atem
TTITLE2=Wahn
TTITLE3=Green Desert
TTITLE4=Indian Summer
EXTD=
EXTT0=
EXTT1=
EXTT2=
EXTT3=
EXTT4=
PLAYORDER=
